<mxfile host="Electron" modified="2023-10-27T08:29:51.738Z" agent="Mozilla/5.0 (Windows NT 10.0; Win64; x64) AppleWebKit/537.36 (KHTML, like Gecko) draw.io/22.0.3 Chrome/114.0.5735.289 Electron/25.8.4 Safari/537.36" etag="XoFUU6EbkKpyH6_l4OIR" version="22.0.3" type="device">
  <diagram id="R2lEEEUBdFMjLlhIrx00" name="Page-1">
    <mxGraphModel dx="1687" dy="993" grid="1" gridSize="10" guides="1" tooltips="1" connect="1" arrows="1" fold="1" page="1" pageScale="1" pageWidth="1654" pageHeight="1169" math="0" shadow="0" extFonts="Permanent Marker^https://fonts.googleapis.com/css?family=Permanent+Marker">
      <root>
        <mxCell id="0" />
        <mxCell id="1" parent="0" />
        <mxCell id="6M8shRNLU926is_q_WI2-28" style="edgeStyle=none;shape=connector;rounded=0;orthogonalLoop=1;jettySize=auto;html=1;labelBackgroundColor=default;strokeColor=default;align=center;verticalAlign=middle;fontFamily=Helvetica;fontSize=11;fontColor=default;endArrow=none;endFill=0;" edge="1" parent="1" source="6M8shRNLU926is_q_WI2-1" target="6M8shRNLU926is_q_WI2-25">
          <mxGeometry relative="1" as="geometry" />
        </mxCell>
        <mxCell id="6M8shRNLU926is_q_WI2-44" value="(1:N)" style="edgeLabel;html=1;align=center;verticalAlign=middle;resizable=0;points=[];fontSize=11;fontFamily=Helvetica;fontColor=default;" vertex="1" connectable="0" parent="6M8shRNLU926is_q_WI2-28">
          <mxGeometry x="-0.6191" y="1" relative="1" as="geometry">
            <mxPoint as="offset" />
          </mxGeometry>
        </mxCell>
        <mxCell id="6M8shRNLU926is_q_WI2-1" value="PROFESOR" style="whiteSpace=wrap;html=1;align=center;fillColor=#dae8fc;strokeColor=#6c8ebf;" vertex="1" parent="1">
          <mxGeometry x="370" y="420" width="100" height="40" as="geometry" />
        </mxCell>
        <mxCell id="6M8shRNLU926is_q_WI2-33" style="edgeStyle=none;shape=connector;rounded=0;orthogonalLoop=1;jettySize=auto;html=1;labelBackgroundColor=default;strokeColor=default;align=center;verticalAlign=middle;fontFamily=Helvetica;fontSize=11;fontColor=default;endArrow=none;endFill=0;" edge="1" parent="1" source="6M8shRNLU926is_q_WI2-2" target="6M8shRNLU926is_q_WI2-26">
          <mxGeometry relative="1" as="geometry" />
        </mxCell>
        <mxCell id="6M8shRNLU926is_q_WI2-48" value="(1:N)" style="edgeLabel;html=1;align=center;verticalAlign=middle;resizable=0;points=[];fontSize=11;fontFamily=Helvetica;fontColor=default;" vertex="1" connectable="0" parent="6M8shRNLU926is_q_WI2-33">
          <mxGeometry x="-0.7123" y="-1" relative="1" as="geometry">
            <mxPoint as="offset" />
          </mxGeometry>
        </mxCell>
        <mxCell id="6M8shRNLU926is_q_WI2-51" style="edgeStyle=none;shape=connector;rounded=0;orthogonalLoop=1;jettySize=auto;html=1;labelBackgroundColor=default;strokeColor=default;align=center;verticalAlign=middle;fontFamily=Helvetica;fontSize=11;fontColor=default;endArrow=none;endFill=0;" edge="1" parent="1" source="6M8shRNLU926is_q_WI2-2" target="6M8shRNLU926is_q_WI2-50">
          <mxGeometry relative="1" as="geometry" />
        </mxCell>
        <mxCell id="6M8shRNLU926is_q_WI2-53" value="(1:N)" style="edgeLabel;html=1;align=center;verticalAlign=middle;resizable=0;points=[];fontSize=11;fontFamily=Helvetica;fontColor=default;" vertex="1" connectable="0" parent="6M8shRNLU926is_q_WI2-51">
          <mxGeometry x="-0.6018" relative="1" as="geometry">
            <mxPoint as="offset" />
          </mxGeometry>
        </mxCell>
        <mxCell id="6M8shRNLU926is_q_WI2-72" style="edgeStyle=none;shape=connector;rounded=0;orthogonalLoop=1;jettySize=auto;html=1;labelBackgroundColor=default;strokeColor=default;align=center;verticalAlign=middle;fontFamily=Helvetica;fontSize=11;fontColor=default;endArrow=none;endFill=0;" edge="1" parent="1" source="6M8shRNLU926is_q_WI2-2" target="6M8shRNLU926is_q_WI2-68">
          <mxGeometry relative="1" as="geometry" />
        </mxCell>
        <mxCell id="6M8shRNLU926is_q_WI2-74" value="(1:N)" style="edgeLabel;html=1;align=center;verticalAlign=middle;resizable=0;points=[];fontSize=11;fontFamily=Helvetica;fontColor=default;" vertex="1" connectable="0" parent="6M8shRNLU926is_q_WI2-72">
          <mxGeometry x="-0.8527" y="2" relative="1" as="geometry">
            <mxPoint as="offset" />
          </mxGeometry>
        </mxCell>
        <mxCell id="6M8shRNLU926is_q_WI2-2" value="ALUMNO" style="whiteSpace=wrap;html=1;align=center;fillColor=#dae8fc;strokeColor=#6c8ebf;" vertex="1" parent="1">
          <mxGeometry x="600" y="420" width="100" height="40" as="geometry" />
        </mxCell>
        <mxCell id="6M8shRNLU926is_q_WI2-3" value="CURSO" style="whiteSpace=wrap;html=1;align=center;fillColor=#dae8fc;strokeColor=#6c8ebf;" vertex="1" parent="1">
          <mxGeometry x="700" y="710" width="100" height="40" as="geometry" />
        </mxCell>
        <mxCell id="6M8shRNLU926is_q_WI2-6" style="rounded=0;orthogonalLoop=1;jettySize=auto;html=1;endArrow=none;endFill=0;" edge="1" parent="1" source="6M8shRNLU926is_q_WI2-10" target="6M8shRNLU926is_q_WI2-5">
          <mxGeometry relative="1" as="geometry" />
        </mxCell>
        <mxCell id="6M8shRNLU926is_q_WI2-4" value="PERSONA" style="whiteSpace=wrap;html=1;align=center;fillColor=#dae8fc;strokeColor=#6c8ebf;" vertex="1" parent="1">
          <mxGeometry x="490" y="230" width="100" height="40" as="geometry" />
        </mxCell>
        <mxCell id="6M8shRNLU926is_q_WI2-7" style="edgeStyle=none;shape=connector;rounded=0;orthogonalLoop=1;jettySize=auto;html=1;labelBackgroundColor=default;strokeColor=default;align=center;verticalAlign=middle;fontFamily=Helvetica;fontSize=11;fontColor=default;endArrow=none;endFill=0;" edge="1" parent="1" source="6M8shRNLU926is_q_WI2-5" target="6M8shRNLU926is_q_WI2-1">
          <mxGeometry relative="1" as="geometry" />
        </mxCell>
        <mxCell id="6M8shRNLU926is_q_WI2-8" style="edgeStyle=none;shape=connector;rounded=0;orthogonalLoop=1;jettySize=auto;html=1;labelBackgroundColor=default;strokeColor=default;align=center;verticalAlign=middle;fontFamily=Helvetica;fontSize=11;fontColor=default;endArrow=none;endFill=0;" edge="1" parent="1" source="6M8shRNLU926is_q_WI2-5" target="6M8shRNLU926is_q_WI2-2">
          <mxGeometry relative="1" as="geometry" />
        </mxCell>
        <mxCell id="6M8shRNLU926is_q_WI2-5" value="" style="triangle;whiteSpace=wrap;html=1;rotation=90;fillColor=#f5f5f5;fontColor=#333333;strokeColor=#666666;" vertex="1" parent="1">
          <mxGeometry x="515" y="310" width="50" height="70" as="geometry" />
        </mxCell>
        <mxCell id="6M8shRNLU926is_q_WI2-9" value="" style="shape=requiredInterface;html=1;verticalLabelPosition=bottom;sketch=0;fontFamily=Helvetica;fontSize=11;fontColor=default;rotation=90;" vertex="1" parent="1">
          <mxGeometry x="516" y="320" width="49" height="90" as="geometry" />
        </mxCell>
        <mxCell id="6M8shRNLU926is_q_WI2-11" value="" style="rounded=0;orthogonalLoop=1;jettySize=auto;html=1;endArrow=none;endFill=0;" edge="1" parent="1" source="6M8shRNLU926is_q_WI2-4" target="6M8shRNLU926is_q_WI2-10">
          <mxGeometry relative="1" as="geometry">
            <mxPoint x="540" y="270" as="sourcePoint" />
            <mxPoint x="540" y="320" as="targetPoint" />
          </mxGeometry>
        </mxCell>
        <mxCell id="6M8shRNLU926is_q_WI2-10" value="" style="ellipse;whiteSpace=wrap;html=1;aspect=fixed;fontFamily=Helvetica;fontSize=11;fontColor=default;" vertex="1" parent="1">
          <mxGeometry x="530" y="290" width="20" height="20" as="geometry" />
        </mxCell>
        <mxCell id="6M8shRNLU926is_q_WI2-17" style="edgeStyle=none;shape=connector;rounded=0;orthogonalLoop=1;jettySize=auto;html=1;labelBackgroundColor=default;strokeColor=default;align=center;verticalAlign=middle;fontFamily=Helvetica;fontSize=11;fontColor=default;endArrow=none;endFill=0;" edge="1" parent="1" source="6M8shRNLU926is_q_WI2-12" target="6M8shRNLU926is_q_WI2-4">
          <mxGeometry relative="1" as="geometry" />
        </mxCell>
        <mxCell id="6M8shRNLU926is_q_WI2-12" value="Nombre" style="ellipse;whiteSpace=wrap;html=1;align=center;fontFamily=Helvetica;fontSize=11;fillColor=#fff2cc;strokeColor=#d6b656;" vertex="1" parent="1">
          <mxGeometry x="260" y="220" width="100" height="40" as="geometry" />
        </mxCell>
        <mxCell id="6M8shRNLU926is_q_WI2-19" style="edgeStyle=none;shape=connector;rounded=0;orthogonalLoop=1;jettySize=auto;html=1;labelBackgroundColor=default;strokeColor=default;align=center;verticalAlign=middle;fontFamily=Helvetica;fontSize=11;fontColor=default;endArrow=none;endFill=0;" edge="1" parent="1" source="6M8shRNLU926is_q_WI2-13" target="6M8shRNLU926is_q_WI2-2">
          <mxGeometry relative="1" as="geometry" />
        </mxCell>
        <mxCell id="6M8shRNLU926is_q_WI2-13" value="FechaNacimiento" style="ellipse;whiteSpace=wrap;html=1;align=center;fontFamily=Helvetica;fontSize=11;fillColor=#fff2cc;strokeColor=#d6b656;" vertex="1" parent="1">
          <mxGeometry x="670" y="280" width="100" height="40" as="geometry" />
        </mxCell>
        <mxCell id="6M8shRNLU926is_q_WI2-20" style="edgeStyle=none;shape=connector;rounded=0;orthogonalLoop=1;jettySize=auto;html=1;labelBackgroundColor=default;strokeColor=default;align=center;verticalAlign=middle;fontFamily=Helvetica;fontSize=11;fontColor=default;endArrow=none;endFill=0;" edge="1" parent="1" source="6M8shRNLU926is_q_WI2-14" target="6M8shRNLU926is_q_WI2-2">
          <mxGeometry relative="1" as="geometry" />
        </mxCell>
        <mxCell id="6M8shRNLU926is_q_WI2-14" value="Direccion" style="ellipse;whiteSpace=wrap;html=1;align=center;fontFamily=Helvetica;fontSize=11;fillColor=#fff2cc;strokeColor=#d6b656;" vertex="1" parent="1">
          <mxGeometry x="770" y="345" width="100" height="40" as="geometry" />
        </mxCell>
        <mxCell id="6M8shRNLU926is_q_WI2-18" style="edgeStyle=none;shape=connector;rounded=0;orthogonalLoop=1;jettySize=auto;html=1;exitX=1;exitY=0.5;exitDx=0;exitDy=0;labelBackgroundColor=default;strokeColor=default;align=center;verticalAlign=middle;fontFamily=Helvetica;fontSize=11;fontColor=default;endArrow=none;endFill=0;" edge="1" parent="1" source="6M8shRNLU926is_q_WI2-15" target="6M8shRNLU926is_q_WI2-1">
          <mxGeometry relative="1" as="geometry" />
        </mxCell>
        <mxCell id="6M8shRNLU926is_q_WI2-15" value="CorreoElectronico" style="ellipse;whiteSpace=wrap;html=1;align=center;fontFamily=Helvetica;fontSize=11;fillColor=#fff2cc;strokeColor=#d6b656;" vertex="1" parent="1">
          <mxGeometry x="180" y="420" width="100" height="40" as="geometry" />
        </mxCell>
        <mxCell id="6M8shRNLU926is_q_WI2-22" style="edgeStyle=none;shape=connector;rounded=0;orthogonalLoop=1;jettySize=auto;html=1;labelBackgroundColor=default;strokeColor=default;align=center;verticalAlign=middle;fontFamily=Helvetica;fontSize=11;fontColor=default;endArrow=none;endFill=0;" edge="1" parent="1" source="6M8shRNLU926is_q_WI2-21" target="6M8shRNLU926is_q_WI2-4">
          <mxGeometry relative="1" as="geometry" />
        </mxCell>
        <mxCell id="6M8shRNLU926is_q_WI2-21" value="Dni" style="ellipse;whiteSpace=wrap;html=1;align=center;fontStyle=4;fontFamily=Helvetica;fontSize=11;fillColor=#fff2cc;strokeColor=#d6b656;" vertex="1" parent="1">
          <mxGeometry x="660" y="160" width="100" height="40" as="geometry" />
        </mxCell>
        <mxCell id="6M8shRNLU926is_q_WI2-30" style="edgeStyle=none;shape=connector;rounded=0;orthogonalLoop=1;jettySize=auto;html=1;labelBackgroundColor=default;strokeColor=default;align=center;verticalAlign=middle;fontFamily=Helvetica;fontSize=11;fontColor=default;endArrow=none;endFill=0;" edge="1" parent="1" source="6M8shRNLU926is_q_WI2-24" target="6M8shRNLU926is_q_WI2-27">
          <mxGeometry relative="1" as="geometry" />
        </mxCell>
        <mxCell id="6M8shRNLU926is_q_WI2-47" value="(1:N)" style="edgeLabel;html=1;align=center;verticalAlign=middle;resizable=0;points=[];fontSize=11;fontFamily=Helvetica;fontColor=default;" vertex="1" connectable="0" parent="6M8shRNLU926is_q_WI2-30">
          <mxGeometry x="-0.5078" y="1" relative="1" as="geometry">
            <mxPoint x="-1" as="offset" />
          </mxGeometry>
        </mxCell>
        <mxCell id="6M8shRNLU926is_q_WI2-24" value="ASIGNATURA" style="whiteSpace=wrap;html=1;align=center;fontFamily=Helvetica;fontSize=11;fillColor=#dae8fc;strokeColor=#6c8ebf;" vertex="1" parent="1">
          <mxGeometry x="370" y="710" width="100" height="40" as="geometry" />
        </mxCell>
        <mxCell id="6M8shRNLU926is_q_WI2-29" style="edgeStyle=none;shape=connector;rounded=0;orthogonalLoop=1;jettySize=auto;html=1;labelBackgroundColor=default;strokeColor=default;align=center;verticalAlign=middle;fontFamily=Helvetica;fontSize=11;fontColor=default;endArrow=none;endFill=0;" edge="1" parent="1" source="6M8shRNLU926is_q_WI2-25" target="6M8shRNLU926is_q_WI2-24">
          <mxGeometry relative="1" as="geometry" />
        </mxCell>
        <mxCell id="6M8shRNLU926is_q_WI2-45" value="(1:1)" style="edgeLabel;html=1;align=center;verticalAlign=middle;resizable=0;points=[];fontSize=11;fontFamily=Helvetica;fontColor=default;" vertex="1" connectable="0" parent="6M8shRNLU926is_q_WI2-29">
          <mxGeometry x="0.6674" y="1" relative="1" as="geometry">
            <mxPoint as="offset" />
          </mxGeometry>
        </mxCell>
        <mxCell id="6M8shRNLU926is_q_WI2-25" value="IMPARTIR&lt;br&gt;1:N" style="shape=rhombus;perimeter=rhombusPerimeter;whiteSpace=wrap;html=1;align=center;fontFamily=Helvetica;fontSize=11;fillColor=#d5e8d4;strokeColor=#82b366;" vertex="1" parent="1">
          <mxGeometry x="360" y="540" width="120" height="60" as="geometry" />
        </mxCell>
        <mxCell id="6M8shRNLU926is_q_WI2-32" style="edgeStyle=none;shape=connector;rounded=0;orthogonalLoop=1;jettySize=auto;html=1;labelBackgroundColor=default;strokeColor=default;align=center;verticalAlign=middle;fontFamily=Helvetica;fontSize=11;fontColor=default;endArrow=none;endFill=0;" edge="1" parent="1" source="6M8shRNLU926is_q_WI2-26" target="6M8shRNLU926is_q_WI2-3">
          <mxGeometry relative="1" as="geometry" />
        </mxCell>
        <mxCell id="6M8shRNLU926is_q_WI2-49" value="(1:N)" style="edgeLabel;html=1;align=center;verticalAlign=middle;resizable=0;points=[];fontSize=11;fontFamily=Helvetica;fontColor=default;" vertex="1" connectable="0" parent="6M8shRNLU926is_q_WI2-32">
          <mxGeometry x="0.648" y="3" relative="1" as="geometry">
            <mxPoint as="offset" />
          </mxGeometry>
        </mxCell>
        <mxCell id="6M8shRNLU926is_q_WI2-26" value="MATRICULAR&lt;br&gt;N:N" style="shape=rhombus;perimeter=rhombusPerimeter;whiteSpace=wrap;html=1;align=center;fontFamily=Helvetica;fontSize=11;fillColor=#d5e8d4;strokeColor=#82b366;" vertex="1" parent="1">
          <mxGeometry x="680" y="555" width="120" height="60" as="geometry" />
        </mxCell>
        <mxCell id="6M8shRNLU926is_q_WI2-31" style="edgeStyle=none;shape=connector;rounded=0;orthogonalLoop=1;jettySize=auto;html=1;labelBackgroundColor=default;strokeColor=default;align=center;verticalAlign=middle;fontFamily=Helvetica;fontSize=11;fontColor=default;endArrow=none;endFill=0;" edge="1" parent="1" source="6M8shRNLU926is_q_WI2-27" target="6M8shRNLU926is_q_WI2-3">
          <mxGeometry relative="1" as="geometry" />
        </mxCell>
        <mxCell id="6M8shRNLU926is_q_WI2-46" value="(1:N)" style="edgeLabel;html=1;align=center;verticalAlign=middle;resizable=0;points=[];fontSize=11;fontFamily=Helvetica;fontColor=default;" vertex="1" connectable="0" parent="6M8shRNLU926is_q_WI2-31">
          <mxGeometry x="0.2965" y="-1" relative="1" as="geometry">
            <mxPoint x="-1" as="offset" />
          </mxGeometry>
        </mxCell>
        <mxCell id="6M8shRNLU926is_q_WI2-27" value="CONTENER&lt;br&gt;N:N" style="shape=rhombus;perimeter=rhombusPerimeter;whiteSpace=wrap;html=1;align=center;fontFamily=Helvetica;fontSize=11;fillColor=#d5e8d4;strokeColor=#82b366;" vertex="1" parent="1">
          <mxGeometry x="530" y="700" width="120" height="60" as="geometry" />
        </mxCell>
        <mxCell id="6M8shRNLU926is_q_WI2-40" style="edgeStyle=none;shape=connector;rounded=0;orthogonalLoop=1;jettySize=auto;html=1;labelBackgroundColor=default;strokeColor=default;align=center;verticalAlign=middle;fontFamily=Helvetica;fontSize=11;fontColor=default;endArrow=none;endFill=0;" edge="1" parent="1" source="6M8shRNLU926is_q_WI2-34" target="6M8shRNLU926is_q_WI2-3">
          <mxGeometry relative="1" as="geometry" />
        </mxCell>
        <mxCell id="6M8shRNLU926is_q_WI2-34" value="Nombre" style="ellipse;whiteSpace=wrap;html=1;align=center;fontFamily=Helvetica;fontSize=11;fillColor=#fff2cc;strokeColor=#d6b656;" vertex="1" parent="1">
          <mxGeometry x="827" y="640" width="100" height="40" as="geometry" />
        </mxCell>
        <mxCell id="6M8shRNLU926is_q_WI2-41" style="edgeStyle=none;shape=connector;rounded=0;orthogonalLoop=1;jettySize=auto;html=1;labelBackgroundColor=default;strokeColor=default;align=center;verticalAlign=middle;fontFamily=Helvetica;fontSize=11;fontColor=default;endArrow=none;endFill=0;" edge="1" parent="1" source="6M8shRNLU926is_q_WI2-35" target="6M8shRNLU926is_q_WI2-3">
          <mxGeometry relative="1" as="geometry" />
        </mxCell>
        <mxCell id="6M8shRNLU926is_q_WI2-35" value="Creditos" style="ellipse;whiteSpace=wrap;html=1;align=center;fontFamily=Helvetica;fontSize=11;fillColor=#fff2cc;strokeColor=#d6b656;" vertex="1" parent="1">
          <mxGeometry x="920" y="690" width="100" height="40" as="geometry" />
        </mxCell>
        <mxCell id="6M8shRNLU926is_q_WI2-42" style="edgeStyle=none;shape=connector;rounded=0;orthogonalLoop=1;jettySize=auto;html=1;labelBackgroundColor=default;strokeColor=default;align=center;verticalAlign=middle;fontFamily=Helvetica;fontSize=11;fontColor=default;endArrow=none;endFill=0;" edge="1" parent="1" source="6M8shRNLU926is_q_WI2-36" target="6M8shRNLU926is_q_WI2-3">
          <mxGeometry relative="1" as="geometry" />
        </mxCell>
        <mxCell id="6M8shRNLU926is_q_WI2-36" value="Horario" style="ellipse;whiteSpace=wrap;html=1;align=center;fontFamily=Helvetica;fontSize=11;fillColor=#fff2cc;strokeColor=#d6b656;" vertex="1" parent="1">
          <mxGeometry x="900" y="750" width="100" height="40" as="geometry" />
        </mxCell>
        <mxCell id="6M8shRNLU926is_q_WI2-43" style="edgeStyle=none;shape=connector;rounded=0;orthogonalLoop=1;jettySize=auto;html=1;labelBackgroundColor=default;strokeColor=default;align=center;verticalAlign=middle;fontFamily=Helvetica;fontSize=11;fontColor=default;endArrow=none;endFill=0;" edge="1" parent="1" source="6M8shRNLU926is_q_WI2-38" target="6M8shRNLU926is_q_WI2-3">
          <mxGeometry relative="1" as="geometry" />
        </mxCell>
        <mxCell id="6M8shRNLU926is_q_WI2-38" value="IdCurso" style="ellipse;whiteSpace=wrap;html=1;align=center;fontStyle=4;fontFamily=Helvetica;fontSize=11;fillColor=#fff2cc;strokeColor=#d6b656;" vertex="1" parent="1">
          <mxGeometry x="840" y="810" width="100" height="40" as="geometry" />
        </mxCell>
        <mxCell id="6M8shRNLU926is_q_WI2-52" style="edgeStyle=none;shape=connector;rounded=0;orthogonalLoop=1;jettySize=auto;html=1;labelBackgroundColor=default;strokeColor=default;align=center;verticalAlign=middle;fontFamily=Helvetica;fontSize=11;fontColor=default;endArrow=none;endFill=0;" edge="1" parent="1" source="6M8shRNLU926is_q_WI2-50" target="6M8shRNLU926is_q_WI2-24">
          <mxGeometry relative="1" as="geometry" />
        </mxCell>
        <mxCell id="6M8shRNLU926is_q_WI2-54" value="(1:N)" style="edgeLabel;html=1;align=center;verticalAlign=middle;resizable=0;points=[];fontSize=11;fontFamily=Helvetica;fontColor=default;" vertex="1" connectable="0" parent="6M8shRNLU926is_q_WI2-52">
          <mxGeometry x="0.5364" relative="1" as="geometry">
            <mxPoint as="offset" />
          </mxGeometry>
        </mxCell>
        <mxCell id="6M8shRNLU926is_q_WI2-50" value="CURSAR&lt;br&gt;N:N" style="shape=rhombus;perimeter=rhombusPerimeter;whiteSpace=wrap;html=1;align=center;fontFamily=Helvetica;fontSize=11;fillColor=#d5e8d4;strokeColor=#82b366;" vertex="1" parent="1">
          <mxGeometry x="515" y="560" width="120" height="60" as="geometry" />
        </mxCell>
        <mxCell id="6M8shRNLU926is_q_WI2-63" style="edgeStyle=none;shape=connector;rounded=0;orthogonalLoop=1;jettySize=auto;html=1;labelBackgroundColor=default;strokeColor=default;align=center;verticalAlign=middle;fontFamily=Helvetica;fontSize=11;fontColor=default;endArrow=none;endFill=0;" edge="1" parent="1" source="6M8shRNLU926is_q_WI2-55" target="6M8shRNLU926is_q_WI2-24">
          <mxGeometry relative="1" as="geometry" />
        </mxCell>
        <mxCell id="6M8shRNLU926is_q_WI2-55" value="Nombre" style="ellipse;whiteSpace=wrap;html=1;align=center;fontFamily=Helvetica;fontSize=11;fillColor=#fff2cc;strokeColor=#d6b656;" vertex="1" parent="1">
          <mxGeometry x="160" y="600" width="100" height="40" as="geometry" />
        </mxCell>
        <mxCell id="6M8shRNLU926is_q_WI2-62" style="edgeStyle=none;shape=connector;rounded=0;orthogonalLoop=1;jettySize=auto;html=1;labelBackgroundColor=default;strokeColor=default;align=center;verticalAlign=middle;fontFamily=Helvetica;fontSize=11;fontColor=default;endArrow=none;endFill=0;" edge="1" parent="1" source="6M8shRNLU926is_q_WI2-56" target="6M8shRNLU926is_q_WI2-24">
          <mxGeometry relative="1" as="geometry" />
        </mxCell>
        <mxCell id="6M8shRNLU926is_q_WI2-56" value="Creditos" style="ellipse;whiteSpace=wrap;html=1;align=center;fontFamily=Helvetica;fontSize=11;fillColor=#fff2cc;strokeColor=#d6b656;" vertex="1" parent="1">
          <mxGeometry x="100" y="660" width="100" height="40" as="geometry" />
        </mxCell>
        <mxCell id="6M8shRNLU926is_q_WI2-61" style="edgeStyle=none;shape=connector;rounded=0;orthogonalLoop=1;jettySize=auto;html=1;labelBackgroundColor=default;strokeColor=default;align=center;verticalAlign=middle;fontFamily=Helvetica;fontSize=11;fontColor=default;endArrow=none;endFill=0;" edge="1" parent="1" source="6M8shRNLU926is_q_WI2-57" target="6M8shRNLU926is_q_WI2-24">
          <mxGeometry relative="1" as="geometry" />
        </mxCell>
        <mxCell id="6M8shRNLU926is_q_WI2-57" value="Horario" style="ellipse;whiteSpace=wrap;html=1;align=center;fontFamily=Helvetica;fontSize=11;fillColor=#fff2cc;strokeColor=#d6b656;" vertex="1" parent="1">
          <mxGeometry x="70" y="780" width="100" height="40" as="geometry" />
        </mxCell>
        <mxCell id="6M8shRNLU926is_q_WI2-60" style="edgeStyle=none;shape=connector;rounded=0;orthogonalLoop=1;jettySize=auto;html=1;labelBackgroundColor=default;strokeColor=default;align=center;verticalAlign=middle;fontFamily=Helvetica;fontSize=11;fontColor=default;endArrow=none;endFill=0;" edge="1" parent="1" source="6M8shRNLU926is_q_WI2-58" target="6M8shRNLU926is_q_WI2-24">
          <mxGeometry relative="1" as="geometry" />
        </mxCell>
        <mxCell id="6M8shRNLU926is_q_WI2-58" value="IdAsignatura" style="ellipse;whiteSpace=wrap;html=1;align=center;fontStyle=4;fontFamily=Helvetica;fontSize=11;fillColor=#fff2cc;strokeColor=#d6b656;" vertex="1" parent="1">
          <mxGeometry x="140" y="890" width="100" height="40" as="geometry" />
        </mxCell>
        <mxCell id="6M8shRNLU926is_q_WI2-66" style="edgeStyle=none;shape=connector;rounded=0;orthogonalLoop=1;jettySize=auto;html=1;labelBackgroundColor=default;strokeColor=default;align=center;verticalAlign=middle;fontFamily=Helvetica;fontSize=11;fontColor=default;endArrow=none;endFill=0;" edge="1" parent="1" source="6M8shRNLU926is_q_WI2-64" target="6M8shRNLU926is_q_WI2-65">
          <mxGeometry relative="1" as="geometry" />
        </mxCell>
        <mxCell id="6M8shRNLU926is_q_WI2-69" value="(1:N)" style="edgeLabel;html=1;align=center;verticalAlign=middle;resizable=0;points=[];fontSize=11;fontFamily=Helvetica;fontColor=default;" vertex="1" connectable="0" parent="6M8shRNLU926is_q_WI2-66">
          <mxGeometry x="-0.5192" y="1" relative="1" as="geometry">
            <mxPoint as="offset" />
          </mxGeometry>
        </mxCell>
        <mxCell id="6M8shRNLU926is_q_WI2-64" value="GRADO" style="whiteSpace=wrap;html=1;align=center;fontFamily=Helvetica;fontSize=11;fillColor=#dae8fc;strokeColor=#6c8ebf;" vertex="1" parent="1">
          <mxGeometry x="535" y="970" width="100" height="40" as="geometry" />
        </mxCell>
        <mxCell id="6M8shRNLU926is_q_WI2-67" style="edgeStyle=none;shape=connector;rounded=0;orthogonalLoop=1;jettySize=auto;html=1;labelBackgroundColor=default;strokeColor=default;align=center;verticalAlign=middle;fontFamily=Helvetica;fontSize=11;fontColor=default;endArrow=none;endFill=0;" edge="1" parent="1" source="6M8shRNLU926is_q_WI2-65" target="6M8shRNLU926is_q_WI2-3">
          <mxGeometry relative="1" as="geometry" />
        </mxCell>
        <mxCell id="6M8shRNLU926is_q_WI2-70" value="(1:1)" style="edgeLabel;html=1;align=center;verticalAlign=middle;resizable=0;points=[];fontSize=11;fontFamily=Helvetica;fontColor=default;" vertex="1" connectable="0" parent="6M8shRNLU926is_q_WI2-67">
          <mxGeometry x="0.6882" y="-2" relative="1" as="geometry">
            <mxPoint x="1" as="offset" />
          </mxGeometry>
        </mxCell>
        <mxCell id="6M8shRNLU926is_q_WI2-65" value="CONTENER&lt;br&gt;1:N" style="shape=rhombus;perimeter=rhombusPerimeter;whiteSpace=wrap;html=1;align=center;fontFamily=Helvetica;fontSize=11;fillColor=#d5e8d4;strokeColor=#82b366;" vertex="1" parent="1">
          <mxGeometry x="620" y="830" width="120" height="60" as="geometry" />
        </mxCell>
        <mxCell id="6M8shRNLU926is_q_WI2-71" style="edgeStyle=none;shape=connector;rounded=0;orthogonalLoop=1;jettySize=auto;html=1;labelBackgroundColor=default;strokeColor=default;align=center;verticalAlign=middle;fontFamily=Helvetica;fontSize=11;fontColor=default;endArrow=none;endFill=0;" edge="1" parent="1" source="6M8shRNLU926is_q_WI2-68" target="6M8shRNLU926is_q_WI2-64">
          <mxGeometry relative="1" as="geometry" />
        </mxCell>
        <mxCell id="6M8shRNLU926is_q_WI2-75" value="(1:N)" style="edgeLabel;html=1;align=center;verticalAlign=middle;resizable=0;points=[];fontSize=11;fontFamily=Helvetica;fontColor=default;" vertex="1" connectable="0" parent="6M8shRNLU926is_q_WI2-71">
          <mxGeometry x="0.8693" y="1" relative="1" as="geometry">
            <mxPoint as="offset" />
          </mxGeometry>
        </mxCell>
        <mxCell id="6M8shRNLU926is_q_WI2-68" value="PERTENECER&lt;br&gt;N:N" style="shape=rhombus;perimeter=rhombusPerimeter;whiteSpace=wrap;html=1;align=center;fontFamily=Helvetica;fontSize=11;fillColor=#d5e8d4;strokeColor=#82b366;" vertex="1" parent="1">
          <mxGeometry x="1100" y="750" width="120" height="60" as="geometry" />
        </mxCell>
        <mxCell id="6M8shRNLU926is_q_WI2-78" style="edgeStyle=none;shape=connector;rounded=0;orthogonalLoop=1;jettySize=auto;html=1;labelBackgroundColor=default;strokeColor=default;align=center;verticalAlign=middle;fontFamily=Helvetica;fontSize=11;fontColor=default;endArrow=none;endFill=0;" edge="1" parent="1" source="6M8shRNLU926is_q_WI2-76" target="6M8shRNLU926is_q_WI2-64">
          <mxGeometry relative="1" as="geometry" />
        </mxCell>
        <mxCell id="6M8shRNLU926is_q_WI2-76" value="Nombre" style="ellipse;whiteSpace=wrap;html=1;align=center;fontFamily=Helvetica;fontSize=11;fillColor=#fff2cc;strokeColor=#d6b656;" vertex="1" parent="1">
          <mxGeometry x="380" y="890" width="100" height="40" as="geometry" />
        </mxCell>
        <mxCell id="6M8shRNLU926is_q_WI2-79" style="edgeStyle=none;shape=connector;rounded=0;orthogonalLoop=1;jettySize=auto;html=1;labelBackgroundColor=default;strokeColor=default;align=center;verticalAlign=middle;fontFamily=Helvetica;fontSize=11;fontColor=default;endArrow=none;endFill=0;" edge="1" parent="1" source="6M8shRNLU926is_q_WI2-77" target="6M8shRNLU926is_q_WI2-64">
          <mxGeometry relative="1" as="geometry" />
        </mxCell>
        <mxCell id="6M8shRNLU926is_q_WI2-77" value="IdGrado" style="ellipse;whiteSpace=wrap;html=1;align=center;fontStyle=4;fontFamily=Helvetica;fontSize=11;fillColor=#fff2cc;strokeColor=#d6b656;" vertex="1" parent="1">
          <mxGeometry x="350" y="1000" width="100" height="40" as="geometry" />
        </mxCell>
      </root>
    </mxGraphModel>
  </diagram>
</mxfile>
